HIERARCHY
ROOT joint_Root
{
	OFFSET 0.0 0.0 0.0
	CHANNELS 6 Xposition Yposition Zposition Zrotation Xrotation Yrotation 
	JOINT Hips
	{
		OFFSET 4.5925 91.4895 -427.239
		CHANNELS 6 Xposition Yposition Zposition Zrotation Xrotation Yrotation 
		JOINT Spine
		{
			OFFSET 15.7357 0.0 0.0
			CHANNELS 6 Xposition Yposition Zposition Zrotation Xrotation Yrotation 
			JOINT Chest
			{
				OFFSET 8.98455 -0.406207 0.0
				CHANNELS 6 Xposition Yposition Zposition Zrotation Xrotation Yrotation 
				JOINT Neck
				{
					OFFSET 16.3773 0.0 0.0
					CHANNELS 6 Xposition Yposition Zposition Zrotation Xrotation Yrotation 
					JOINT Head
					{
						OFFSET 6.45672 0.0 0.0
						CHANNELS 6 Xposition Yposition Zposition Zrotation Xrotation Yrotation 
						End Site
						{
							OFFSET 0.0 0.0 0.0
						}
					}
				}
				JOINT Shoulder_L
				{
					OFFSET 12.9942 -0.242716 4.98039
					CHANNELS 6 Xposition Yposition Zposition Zrotation Xrotation Yrotation 
					JOINT UpperArm_L
					{
						OFFSET 5.34809 0.0 0.0
						CHANNELS 6 Xposition Yposition Zposition Zrotation Xrotation Yrotation 
						JOINT LowerArm_L
						{
							OFFSET 24.3286 1.87007e-05 0.0
							CHANNELS 6 Xposition Yposition Zposition Zrotation Xrotation Yrotation 
							JOINT Hand_L
							{
								OFFSET 22.2916 0.0 0.0
								CHANNELS 6 Xposition Yposition Zposition Zrotation Xrotation Yrotation 
								End Site
								{
									OFFSET 0.0 0.0 0.0
								}
							}
						}
					}
				}
				JOINT Shoulder_R
				{
					OFFSET 12.9945 -0.242716 -4.98039
					CHANNELS 6 Xposition Yposition Zposition Zrotation Xrotation Yrotation 
					JOINT UpperArm_R
					{
						OFFSET -5.34813 0.0 0.0
						CHANNELS 6 Xposition Yposition Zposition Zrotation Xrotation Yrotation 
						JOINT LowerArm_R
						{
							OFFSET -24.3289 0.000322201 0.0
							CHANNELS 6 Xposition Yposition Zposition Zrotation Xrotation Yrotation 
							JOINT Hand_R
							{
								OFFSET -22.2915 -0.000108084 0.0
								CHANNELS 6 Xposition Yposition Zposition Zrotation Xrotation Yrotation 
								End Site
								{
									OFFSET 0.0 0.0 0.0
								}
							}
						}
					}
				}
			}
		}
		JOINT UpperLeg_L
		{
			OFFSET -2.19248 -6.46944 0.0
			CHANNELS 6 Xposition Yposition Zposition Zrotation Xrotation Yrotation 
			JOINT LowerLeg_L
			{
				OFFSET 39.0811 0.0 -1.23785e-05
				CHANNELS 6 Xposition Yposition Zposition Zrotation Xrotation Yrotation 
				JOINT Foot_L
				{
					OFFSET 40.9854 0.0 -1.26872e-05
					CHANNELS 6 Xposition Yposition Zposition Zrotation Xrotation Yrotation 
					JOINT Toes_L
					{
						OFFSET 11.7543 0.0 0.0
						CHANNELS 6 Xposition Yposition Zposition Zrotation Xrotation Yrotation 
						End Site
						{
							OFFSET 0.0 0.0 0.0
						}
					}
				}
			}
		}
		JOINT UpperLeg_R
		{
			OFFSET -2.19251 6.46944 0.0
			CHANNELS 6 Xposition Yposition Zposition Zrotation Xrotation Yrotation 
			JOINT LowerLeg_R
			{
				OFFSET -39.0811 -0.00228153 -0.0401928
				CHANNELS 6 Xposition Yposition Zposition Zrotation Xrotation Yrotation 
				JOINT Foot_R
				{
					OFFSET -40.9854 0.0 0.0
					CHANNELS 6 Xposition Yposition Zposition Zrotation Xrotation Yrotation 
					JOINT Toes_R
					{
						OFFSET -11.7543 0.0 0.0
						CHANNELS 6 Xposition Yposition Zposition Zrotation Xrotation Yrotation 
						End Site
						{
							OFFSET 0.0 0.0 0.0
						}
					}
				}
			}
		}
	}
}
MOTION
Frames:	4
Frame Time:	0.0333333
0.000000 0.000000 0.000000 0.000000 0.000000 -0.000000 -4.409280 90.618200 -0.823749 89.421100 -8.394660 12.157900 15.735700 0.000005 -0.000001 79.276400 81.300900 -76.865200 8.984550 -0.406207 -0.000000 9.410960 -3.184440 5.081800 16.377300 -0.000001 -0.000001 30.895700 -11.267200 3.982490 6.456720 -0.000001 -0.000000 20.526000 -13.822900 5.006120 12.994200 -0.242716 4.980390 -88.070800 -5.236120 -69.741000 5.348090 -0.000007 -0.000001 -39.142000 -43.130000 -72.847800 24.328600 0.000019 0.000005 9.348860 12.722200 -36.784100 22.291600 -0.000001 0.000005 18.890000 5.180890 3.194500 12.994500 -0.242716 -4.980390 88.252300 9.473770 -79.497900 -5.348130 -0.000001 -0.000004 -60.034400 29.418100 -10.701700 -24.328900 0.000322 -0.000009 1.183950 3.945700 -16.732400 -22.291500 -0.000108 -0.000004 12.888200 5.379750 -2.290450 -2.192480 -6.469440 -0.000000 -170.793000 -13.997100 2.757970 39.081100 -0.000007 -0.000012 -0.187680 0.316761 30.646900 40.985400 -0.000006 -0.000013 -3.099600 4.007430 -69.859600 11.754300 -0.000000 0.000003 -0.000041 -0.000472 -16.595900 -2.192510 6.469440 -0.000001 177.701000 14.569100 -178.272000 -39.081100 -0.002282 -0.040193 -0.144313 0.243781 31.195500 -40.985400 0.000008 0.000006 5.746730 11.638700 -71.390900 -11.754300 -0.000006 -0.000006 -0.003134 -0.042105 -18.285500
0.000000 0.000000 0.000000 0.000000 0.000000 -0.000000 -4.370350 90.593300 -0.673330 89.377700 -7.579300 12.523400 15.735700 0.000005 -0.000001 79.540700 81.376300 -77.200800 8.984550 -0.406207 -0.000000 9.272420 -3.083100 4.927040 16.377300 -0.000001 -0.000001 30.994700 -11.041100 3.670230 6.456720 -0.000001 -0.000000 20.576700 -13.628400 4.919570 12.994200 -0.242716 4.980390 -87.972500 -5.407030 -69.409000 5.348090 -0.000007 -0.000001 -40.266300 -42.064300 -76.767300 24.328600 0.000019 0.000005 8.679510 10.255800 -40.614200 22.291600 -0.000001 0.000005 19.202700 5.191310 2.936650 12.994500 -0.242716 -4.980390 88.278800 9.541290 -79.724900 -5.348130 -0.000001 -0.000004 -59.868100 30.042000 -11.402500 -24.328900 0.000322 -0.000009 1.139750 3.532360 -17.910800 -22.291500 -0.000108 -0.000004 12.998800 5.384700 -2.446540 -2.192480 -6.469440 -0.000000 -170.813000 -13.389800 3.003280 39.081100 -0.000007 -0.000012 -0.188868 0.317078 30.780500 40.985400 -0.000006 -0.000013 -3.004660 4.229450 -69.967000 11.754300 -0.000000 0.000003 -0.000037 -0.000435 -16.594500 -2.192510 6.469440 -0.000001 177.430000 15.129200 -177.667000 -39.081100 -0.002282 -0.040193 -0.145081 0.245210 31.178900 -40.985400 0.000008 0.000006 5.637560 11.474800 -71.540200 -11.754300 -0.000006 -0.000006 -0.003236 -0.043245 -18.331900
0.000000 0.000000 0.000000 0.000000 0.000000 -0.000000 -4.325010 90.566900 -0.537530 89.306700 -6.743340 12.936300 15.735700 0.000005 -0.000001 79.827300 81.421300 -77.550000 8.984550 -0.406207 -0.000000 9.194620 -2.985450 4.791950 16.377300 -0.000001 -0.000001 31.035400 -10.874100 3.333940 6.456720 -0.000001 -0.000000 20.566300 -13.414600 4.798360 12.994200 -0.242716 4.980390 -87.889500 -5.530690 -69.074900 5.348090 -0.000007 -0.000001 -40.341800 -40.887500 -80.176000 24.328600 0.000019 0.000005 8.209390 8.376770 -44.722500 22.291600 -0.000001 0.000005 19.772600 5.205540 2.580410 12.994500 -0.242716 -4.980390 88.319100 9.534820 -79.954100 -5.348130 -0.000001 -0.000004 -59.702000 30.687700 -12.137600 -24.328900 0.000322 -0.000009 1.089050 3.159100 -19.049500 -22.291500 -0.000108 -0.000004 13.035400 5.390650 -2.635770 -2.192480 -6.469440 -0.000000 -170.778000 -12.870300 3.281150 39.081100 -0.000007 -0.000012 -0.187752 0.313138 30.946400 40.985400 -0.000006 -0.000013 -2.856860 4.591000 -70.081900 11.754300 -0.000000 0.000003 -0.000040 -0.000469 -16.595800 -2.192510 6.469440 -0.000001 177.110000 15.859800 -176.997000 -39.081100 -0.002282 -0.040193 -0.147232 0.249009 31.154000 -40.985400 0.000008 0.000006 5.557920 11.421900 -71.685900 -11.754300 -0.000006 -0.000006 -0.003279 -0.043716 -18.351100
0.000000 0.000000 0.000000 0.000000 0.000000 -0.000000 -4.284670 90.542300 -0.405073 89.222800 -5.851670 13.372600 15.735700 0.000005 -0.000001 79.952000 81.450400 -77.753300 8.984550 -0.406207 -0.000000 9.140340 -2.941000 4.629630 16.377300 -0.000001 -0.000001 30.944900 -10.694100 2.939910 6.456720 -0.000001 -0.000000 20.657300 -13.166800 4.725800 12.994200 -0.242716 4.980390 -87.817900 -5.656030 -68.862600 5.348090 -0.000007 -0.000001 -39.413200 -39.902700 -82.966900 24.328600 0.000019 0.000005 8.676130 7.575560 -49.174200 22.291600 -0.000001 0.000005 20.242500 5.220350 2.203420 12.994500 -0.242716 -4.980390 88.357000 9.534500 -80.175500 -5.348130 -0.000001 -0.000004 -59.599900 31.297000 -12.881500 -24.328900 0.000322 -0.000009 1.085810 2.989950 -19.986800 -22.291500 -0.000108 -0.000004 13.093500 5.397750 -2.864590 -2.192480 -6.469440 -0.000000 -170.719000 -12.340300 3.567770 39.081100 -0.000007 -0.000012 -0.188112 0.311737 31.108500 40.985400 -0.000006 -0.000013 -2.701990 5.009520 -70.180900 11.754300 -0.000000 0.000003 -0.000040 -0.000462 -16.595500 -2.192510 6.469440 -0.000001 176.772000 16.642500 -176.277000 -39.081100 -0.002282 -0.040193 -0.143120 0.242687 31.103900 -40.985400 0.000008 0.000006 5.497230 11.426600 -71.826500 -11.754300 -0.000006 -0.000006 -0.003078 -0.041486 -18.260300
